<svg version="1.1" viewBox="0.0 0.0 502.73753280839895 494.9448818897638" fill="none" stroke="none" stroke-linecap="square" stroke-miterlimit="10" xmlns:xlink="http://www.w3.org/1999/xlink" xmlns="http://www.w3.org/2000/svg"><clipPath id="p.0"><path d="m0 0l502.73752 0l0 494.9449l-502.73752 0l0 -494.9449z" clip-rule="nonzero"/></clipPath><g clip-path="url(#p.0)"><path fill="#000000" fill-opacity="0.0" d="m0 0l502.73752 0l0 494.9449l-502.73752 0z" fill-rule="evenodd"/><path fill="#999999" d="m26.833233 247.47244l0 0c0 -124.0075 100.52794 -224.53543 224.53543 -224.53543l0 0c59.55049 0 116.66197 23.656345 158.77052 65.76491c42.10855 42.10856 65.76492 99.220024 65.76492 158.77054l0 0c0 124.00751 -100.527954 224.53543 -224.53545 224.53543l0 0c-124.0075 0 -224.53543 -100.52792 -224.53543 -224.53543z" fill-rule="evenodd"/><path fill="#674ea7" d="m75.46457 247.47244l0 0c0 -97.14993 78.755585 -175.90552 175.9055 -175.90552l0 0c46.65306 0 91.39531 18.532845 124.38399 51.52153c32.988678 32.988686 51.521545 77.730934 51.521545 124.38398l0 0c0 97.14993 -78.755585 175.90552 -175.90553 175.90552l0 0c-97.14992 0 -175.9055 -78.755585 -175.9055 -175.90552z" fill-rule="evenodd"/><path fill="#999999" d="m146.47244 247.47244l0 0c0 -54.96756 46.964264 -99.52756 104.89763 -99.52756l0 0c27.820602 0 54.501724 10.485901 74.17384 29.15094c19.67212 18.66504 30.723816 43.98027 30.723816 70.37662l0 0c0 54.96756 -46.964294 99.52756 -104.89766 99.52756l0 0c-57.933365 0 -104.89763 -44.559998 -104.89763 -99.52756z" fill-rule="evenodd"/><path fill="#674ea7" d="m184.50386 247.47237l0 0c0 -35.050507 29.936981 -63.46457 66.866135 -63.46457l0 0c17.734009 0 34.74167 6.686432 47.281494 18.588348c12.539856 11.9019165 19.584656 28.044373 19.584656 44.87622l0 0c0 35.05052 -29.937012 63.464584 -66.86615 63.464584l0 0c-36.929153 0 -66.866135 -28.414062 -66.866135 -63.464584z" fill-rule="evenodd"/><path fill="#999999" d="m466.1076 247.47244l0 0c0 49.357727 -33.102722 89.37009 -73.93701 89.37009c-40.83426 0 -73.93701 -40.01236 -73.93701 -89.37009l37.978485 0c0 28.382782 16.099182 51.3916 35.958527 51.3916c19.859344 0 35.958527 -23.00882 35.958527 -51.3916z" fill-rule="evenodd"/></g></svg>